#!OML:ASF H:\Terrain\Walking\May29\JustinRory\Justin.ASF
:FULLY-SPECIFIED
:DEGREES
577
root 6.82087 17.4901 -16.7893 -1.46559 4.4548 -2.13659
lowerback 9.29357 -0.546562 -1.35204
upperback 0.0798401 -0.655621 4.10556
thorax -5.0753 -0.238433 5.16237
lowerneck -15.3537 -3.32255 -9.39668
upperneck 11.0239 -3.21511 5.29467
head 6.09282 -1.54592 2.90163
rclavicle 1.59028e-015 -9.54166e-015
rhumerus -16.1701 22.7044 -101.161
rradius 112.934
rwrist -19.0224
rhand -34.07 33.8051
rfingers 7.12502
rthumb -7.24716 3.94918
lclavicle 1.59028e-015 -9.54166e-015
lhumerus -3.51647 -29.1333 95.1401
lradius 99.508
lwrist 13.7725
lhand -19.2436 39.1081
lfingers 7.12502
lthumb 7.06996 68.97
rfemur -7.46205 -7.80997 23.0571
rtibia 23.3641
rfoot -13.0185 -13.5143
rtoes 7.78989
lfemur -9.58536 -2.48315 -11.6851
ltibia 24.6822
lfoot -13.3173 0.963961
ltoes -12.5341
578
root 6.82981 17.5007 -16.803 -1.39664 4.03159 -1.83644
lowerback 9.23746 -0.352458 -1.52136
upperback 0.0626153 -0.427111 3.87659
thorax -5.08446 -0.123669 4.98412
lowerneck -15.8751 -3.36618 -9.56288
upperneck 11.5185 -3.26213 5.71468
head 6.35107 -1.54057 3.0592
rclavicle -9.59136e-015 1.43125e-014
rhumerus -16.1019 25.2764 -102.508
rradius 111.653
rwrist -18.8648
rhand -30.7543 43.1898
rfingers 7.12502
rthumb -4.04583 13.2484
lclavicle -9.59136e-015 1.43125e-014
lhumerus -2.11022 -31.9414 95.3846
lradius 98.2268
lwrist 14.8323
lhand -18.356 39.1653
lfingers 7.12502
lthumb 7.92679 68.9967
rfemur -7.52231 -7.63782 22.709
rtibia 23.2147
rfoot -12.8307 -13.2934
rtoes 7.5233
lfemur -9.42284 -2.38147 -12.0335
ltibia 24.4284
lfoot -13.161 1.14014
ltoes -12.2847
579
root 6.83732 17.5063 -16.8166 -1.42734 3.56058 -2.02982
lowerback 9.23374 -0.258875 -1.34116
upperback 0.153832 -0.284222 3.89846
thorax -5.00119 -0.0600295 4.8833
lowerneck -16.638 -3.35262 -9.70875
upperneck 11.9197 -3.19222 6.01208
head 6.60919 -1.48168 3.18588
rclavicle 6.55989e-015 -2.94201e-014
rhumerus -16.0641 28.0036 -103.695
rradius 110.499
rwrist -18.9954
rhand -30.5508 35.0765
rfingers 7.12502
rthumb -3.84936 5.13153
lclavicle 6.55989e-015 -2.94201e-014
lhumerus -1.27345 -34.6279 95.5842
lradius 97.5859
lwrist 15.417
lhand -17.5691 39.1649
lfingers 7.12502
lthumb 8.68615 68.9662
rfemur -7.50863 -7.39267 22.9129
rtibia 23.0779
rfoot -12.7141 -13.1164
rtoes 7.00571
lfemur -9.22585 -2.17696 -11.8114
ltibia 24.261
lfoot -13.0817 1.39875
ltoes -12.2102
580
root 6.84968 17.5084 -16.8238 -1.40033 3.26721 -2.15949
lowerback 9.01546 -0.193169 -1.27007
upperback 0.388192 -0.193464 3.96862
thorax -4.64145 -0.0257075 4.89679
lowerneck -17.5529 -3.45273 -9.70934
upperneck 12.0201 -3.2372 6.00196
head 6.79795 -1.49118 3.17327
rclavicle -4.96962e-016 1.51076e-014
rhumerus -15.4727 30.4478 -104.271
rradius 109.267
rwrist -19.5454
rhand -29.5633 34.1083
rfingers 7.12502
rthumb -2.89568 4.14821
lclavicle -4.96962e-016 1.51076e-014
lhumerus -0.3819 -37.3283 95.7598
lradius 97.0333
lwrist 15.5142
lhand -16.7764 39.4675
lfingers 7.12502
lthumb 9.45106 69.2356
rfemur -7.43042 -7.38078 23.027
rtibia 22.7988
rfoot -12.5613 -12.8959
rtoes 7.28724
lfemur -9.19664 -2.04943 -11.6898
ltibia 24.2792
lfoot -13.0393 1.50575
ltoes -11.2814
581
root 6.86376 17.5087 -16.8286 -1.37024 3.0746 -2.21876
lowerback 8.9109 -0.122627 -1.13805
upperback 0.487484 -0.0908114 3.94301
thorax -4.48866 0.0181258 4.7776
lowerneck -17.9915 -3.59309 -9.69852
upperneck 11.9174 -3.38448 6.01216
head 6.84977 -1.55256 3.15473
rclavicle 1.2275e-014 1.03368e-014
rhumerus -14.8205 32.0731 -104.569
rradius 107.852
rwrist -19.7686
rhand -30.1956 35.9963
rfingers 7.12502
rthumb -3.50639 6.0454
lclavicle 1.2275e-014 1.03368e-014
lhumerus 0.307122 -39.7506 95.884
lradius 96.3741
lwrist 15.535
lhand -15.833 40.2873
lfingers 7.12502
lthumb 10.3613 70.012
rfemur -7.28427 -7.4165 23.0613
rtibia 22.4208
rfoot -12.3545 -12.7074
rtoes 8.04092
lfemur -9.26474 -1.91245 -11.656
ltibia 24.4285
lfoot -13.1067 1.51669
ltoes -10.8451
582
root 6.86861 17.509 -16.841 -1.36339 2.67936 -2.91288
lowerback 9.02475 -0.0457766 -0.398016
upperback 0.417571 0.09764 4.08432
thorax -4.6421 0.100711 4.48336
lowerneck -18.3204 -3.62373 -9.64198
upperneck 12.0808 -3.39973 5.93589
head 6.95645 -1.56065 3.11765
rclavicle -6.36111e-015 7.95139e-015
rhumerus -14.6616 32.9185 -104.954
rradius 106.48
rwrist -20.1884
rhand -29.077 40.5215
rfingers 7.12502
rthumb -2.42604 10.5555
lclavicle -6.36111e-015 7.95139e-015
lhumerus 0.216116 -41.1821 96.32
lradius 96.1589
lwrist 15.9428
lhand -23.6377 43.4315
lfingers 7.12502
lthumb 2.82722 73.3925
rfemur -7.26184 -6.89595 23.8791
rtibia 22.1423
rfoot -12.1749 -12.8887
rtoes 8.51159
lfemur -9.30516 -1.56035 -10.8467
ltibia 24.4624
lfoot -13.1035 1.51488
ltoes -11.0272
583
root 6.88242 17.5101 -16.8494 -1.38894 2.21674 -3.23293
lowerback 9.14602 0.0624864 0.0346988
upperback 0.381508 0.293722 4.14854
thorax -4.76214 0.190887 4.28107
lowerneck -19.0382 -3.62082 -9.74814
upperneck 12.5698 -3.30848 5.9281
head 7.23022 -1.51726 3.14266
rclavicle 2.73329e-015 -3.97569e-015
rhumerus -14.7644 32.7465 -105.231
rradius 105.721
rwrist -19.5111
rhand -34.0268 48.2527
rfingers 7.12502
rthumb -7.20544 18.3954
lclavicle 2.73329e-015 -3.97569e-015
lhumerus -0.319476 -40.142 97.3004
lradius 95.834
lwrist 13.3544
lhand -21.8972 42.9795
lfingers 7.12502
lthumb 4.50802 72.9115
rfemur -7.2083 -6.53154 24.2102
rtibia 21.9738
rfoot -12.0959 -12.8291
rtoes 9.03561
lfemur -9.12624 -1.30784 -10.5088
ltibia 24.3105
lfoot -13.0009 1.65964
ltoes -11.3146
584
root 6.9105 17.5197 -16.8438 -1.49496 1.95942 -2.46077
lowerback 9.22984 0.158151 -0.527934
upperback 0.374877 0.351849 3.90758
thorax -4.82187 0.230189 4.34003
lowerneck -19.4649 -3.66396 -9.99585
upperneck 12.8705 -3.29122 6.08036
head 7.40611 -1.50414 3.23626
rclavicle -1.2921e-015 2.94201e-014
rhumerus -15.0139 31.2145 -105.315
rradius 107.404
rwrist -23.0072
rhand -29.3953 40.656
rfingers 7.12502
rthumb -2.73349 10.6938
lclavicle -1.2921e-015 2.94201e-014
lhumerus -1.21665 -38.8515 98.331
lradius 95.8576
lwrist 11.8116
lhand -20.2077 41.5213
lfingers 7.12502
lthumb 6.13935 71.4123
rfemur -6.98297 -6.81055 23.1916
rtibia 21.8925
rfoot -12.0824 -12.3312
rtoes 9.38418
lfemur -8.7083 -1.42897 -11.5035
ltibia 24.0204
lfoot -12.8642 1.98707
ltoes -11.0132
